<svg width="656" height="656" viewBox="0 0 656 656" fill="none" xmlns="http://www.w3.org/2000/svg">
<circle cx="328" cy="328" r="328" fill="black"/>
<circle cx="328" cy="328" r="328" stroke="white"/>
<mask id="path-2-inside-1_74_1742" fill="white">
<path fill-rule="evenodd" clip-rule="evenodd" d="M145.149 479.531C140.023 481.208 138.157 487.485 141.712 491.541C145.419 495.77 149.295 499.904 153.338 503.933C250.443 600.698 407.606 600.423 504.371 503.318C601.137 406.212 600.861 249.049 503.756 152.284C499.969 148.51 496.09 144.884 492.127 141.405C487.934 137.724 481.442 139.668 479.726 144.978V144.978C478.73 148.059 479.704 151.427 482.13 153.573C485.624 156.662 489.047 159.875 492.394 163.21C583.43 253.927 583.689 401.268 492.971 492.304C402.254 583.34 254.913 583.598 163.877 492.881C160.275 489.291 156.815 485.614 153.498 481.854C151.416 479.495 148.14 478.553 145.149 479.531V479.531Z"/>
</mask>
<path fill-rule="evenodd" clip-rule="evenodd" d="M145.149 479.531C140.023 481.208 138.157 487.485 141.712 491.541C145.419 495.77 149.295 499.904 153.338 503.933C250.443 600.698 407.606 600.423 504.371 503.318C601.137 406.212 600.861 249.049 503.756 152.284C499.969 148.51 496.09 144.884 492.127 141.405C487.934 137.724 481.442 139.668 479.726 144.978V144.978C478.73 148.059 479.704 151.427 482.13 153.573C485.624 156.662 489.047 159.875 492.394 163.21C583.43 253.927 583.689 401.268 492.971 492.304C402.254 583.34 254.913 583.598 163.877 492.881C160.275 489.291 156.815 485.614 153.498 481.854C151.416 479.495 148.14 478.553 145.149 479.531V479.531Z" fill="black"/>
<path d="M153.498 481.854L129.504 503.027L153.498 481.854ZM492.127 141.405L471.016 165.453L492.127 141.405ZM482.13 153.573L460.932 177.545L482.13 153.573ZM117.648 512.633C121.829 517.404 126.197 522.063 130.75 526.6L175.926 481.266C172.393 477.745 169.01 474.137 165.777 470.448L117.648 512.633ZM130.75 526.6C240.374 635.84 417.798 635.529 527.038 525.905L481.704 480.73C397.414 565.316 260.512 565.556 175.926 481.266L130.75 526.6ZM527.038 525.905C636.279 416.281 635.968 238.857 526.344 129.617L481.168 174.951C565.755 259.242 565.995 396.143 481.704 480.73L527.038 525.905ZM526.344 129.617C522.079 125.367 517.708 121.28 513.238 117.356L471.016 165.453C474.473 168.488 477.859 171.653 481.168 174.951L526.344 129.617ZM514.982 140.543C511.184 136.759 507.298 133.111 503.328 129.601L460.932 177.545C463.95 180.213 466.91 182.991 469.807 185.877L514.982 140.543ZM515.638 514.892C618.831 411.337 618.537 243.735 514.982 140.543L469.807 185.877C548.324 264.12 548.547 391.199 470.304 469.716L515.638 514.892ZM141.289 515.548C244.844 618.74 412.446 618.446 515.638 514.892L470.304 469.716C392.061 548.234 264.982 548.456 186.465 470.214L141.289 515.548ZM129.504 503.027C133.274 507.299 137.203 511.475 141.289 515.548L186.465 470.214C183.348 467.108 180.357 463.928 177.491 460.681L129.504 503.027ZM177.491 460.681C167.226 449.048 150.72 444.041 135.202 449.116L155.096 509.946C145.559 513.065 135.606 509.942 129.504 503.027L177.491 460.681ZM513.238 117.356C490.865 97.7154 457.704 109.061 449.277 135.137L510.175 154.818C505.18 170.276 485.004 177.732 471.016 165.453L513.238 117.356ZM449.277 135.137C444.24 150.721 449.289 167.248 460.932 177.545L503.328 129.601C510.12 135.607 513.22 145.398 510.175 154.818L449.277 135.137ZM165.777 470.448C178.1 484.508 170.699 504.843 155.096 509.946L135.202 449.116C109.346 457.572 98.2136 490.461 117.648 512.633L165.777 470.448Z" fill="white" mask="url(#path-2-inside-1_74_1742)"/>
<path d="M249.81 243.417C179.986 313.241 208.977 393.41 242.55 426.983C276.124 460.557 308.592 462.344 320.629 459.041C373.645 444.217 399.243 415.067 410.153 404.157C418.881 395.429 439.409 369.275 448.582 357.29C483.804 301.106 453.099 255.219 433.343 239.299C401.259 211.578 319.634 173.593 249.81 243.417Z" stroke="white" stroke-width="18"/>
<path d="M300.783 214.648C281.493 238.469 253.799 305.725 297.343 384.181" stroke="white" stroke-width="12"/>
<path d="M359.424 206.639C345.443 224.497 327.306 276.483 366.606 341.567" stroke="white" stroke-width="12"/>
<path d="M387.1 289.579C359.616 271.933 287.323 248.699 218.022 296.927" stroke="white" stroke-width="12"/>
<path d="M347.008 361.165C329.405 345.059 277.786 320.707 212.139 352.148" stroke="white" stroke-width="12"/>
<path d="M134.994 424.789L119.465 432.371L116.723 426.755C111.993 417.066 103.534 411.494 93.2843 416.498C83.3433 421.351 82.2045 430.914 86.8797 440.49L95.4896 458.125L140.533 436.134L134.994 424.789ZM99.8917 441.927L97.2731 436.563C94.9972 431.902 96.3095 429.105 99.3143 427.638C102.375 426.143 105.115 427.553 107.131 431.681L109.777 437.101L99.8917 441.927Z" fill="white"/>
<path d="M105.35 367.053L113.566 361.64L110.574 348.604L66.0253 378.579L69.2061 392.438L122.367 399.987L119.403 387.073L109.677 385.906L105.35 367.053ZM98.4354 384.703L81.5056 382.465L95.7439 372.977L98.4354 384.703Z" fill="white"/>
<path d="M111.017 342.644L110.682 308.958L99.1821 309.073L99.3922 330.134L60.7691 330.519L60.895 343.144L111.017 342.644Z" fill="white"/>
<path d="M62.9071 290.557L112.463 298.087L114.369 285.544L64.8131 278.013L62.9071 290.557Z" fill="white"/>
<path d="M117.146 241.981L126.982 241.741L131.349 229.099L77.6856 230.929L73.0434 244.369L114.137 278.929L118.463 266.405L110.831 260.264L117.146 241.981ZM101.933 253.29L88.7582 242.424L105.861 241.918L101.933 253.29Z" fill="white"/>
<path d="M117.163 195.87L152.137 196.928L159.831 185.344L118.076 157.611L111.143 168.05L135.561 184.267L135.526 184.319L101.029 183.278L93.1795 195.096L134.934 222.829L141.884 212.364L117.128 195.922L117.163 195.87Z" fill="white"/>
<path d="M186.9 159.32L173.869 145.024L166.369 110.212L156.068 119.6L160.643 139.743L141.101 133.241L130.57 142.84L164.513 153.593L177.523 167.867L186.9 159.32Z" fill="white"/>
<path d="M226.682 132.225L207.5 98.6996L219.788 91.6696L214.077 81.6878L178.517 102.033L184.228 112.015L196.542 104.969L215.723 138.495L226.682 132.225Z" fill="white"/>
<path d="M263.965 117.48C275.397 113.832 279.692 104.262 277.222 96.5212C274.952 89.4058 268.292 85.495 258.78 86.6271L251.515 87.5017C248.545 87.8586 247.222 86.28 246.718 84.7021C246.11 82.7967 247.099 79.726 250.85 78.5293C255.197 77.1426 258.471 79.1813 260.272 82.8711L269.891 76.5222C267.023 70.5158 259.688 64.59 247.69 68.4177C238.371 71.3905 232.157 80.3926 235.045 89.4432C237.467 97.0349 244.611 100.201 252.955 99.2118L259.943 98.393C263.298 98.0114 264.724 99.2948 265.237 100.903C265.873 102.897 265.112 105.961 260.795 107.338C256.449 108.725 251.655 107.991 249.067 102.551L239.106 108.55C243.562 117.067 251.997 121.298 263.965 117.48Z" fill="white"/>
<path d="M287.113 59.9158L293.897 109.58L306.467 107.863L299.684 58.1988L287.113 59.9158Z" fill="white"/>
<path d="M349.345 98.3544L352.33 107.73L365.689 108.381L348.901 57.378L334.699 56.686L313.033 105.815L326.267 106.46L330.024 97.4129L349.345 98.3544ZM334.227 86.9176L340.968 71.2271L346.244 87.5032L334.227 86.9176Z" fill="white"/>
<path d="M410.796 69.4675L394.603 116.905L406.611 121.004L422.803 73.566L410.796 69.4675Z" fill="white"/>
<path d="M438.684 136.284L456.987 102.27L469.453 108.979L474.902 98.8517L438.825 79.4381L433.376 89.565L445.869 96.2879L427.566 130.301L438.684 136.284Z" fill="white"/>
</svg>
