<svg width="684" height="684" viewBox="0 0 684 684" fill="none" xmlns="http://www.w3.org/2000/svg">
<g clip-path="url(#clip0_69_926)">
<path d="M183.971 621.332C339.894 711.355 539.273 657.931 629.295 502.008C719.317 346.084 665.894 146.706 509.971 56.6836C354.047 -33.3388 154.669 20.0845 64.6465 176.008C-25.3759 331.931 28.0474 531.31 183.971 621.332Z" fill="#FFD101" stroke="#005BBB" stroke-width="32"/>
<path d="M152.276 241.693L136.805 233.992L139.591 228.397C144.395 218.745 143.665 208.642 133.454 203.559C123.551 198.629 115.272 203.549 110.523 213.089L101.777 230.657L146.649 252.995L152.276 241.693ZM117.307 224.285L119.967 218.942C122.278 214.298 125.296 213.636 128.289 215.126C131.339 216.644 131.889 219.676 129.842 223.788L127.154 229.187L117.307 224.285Z" fill="#005BBB"/>
<path d="M180.477 182.872L189.748 186.167L198.347 175.922L147.579 158.439L138.437 169.33L164.452 216.301L172.971 206.152L168.04 197.688L180.477 182.872ZM162.225 187.993L153.808 173.134L169.96 178.778L162.225 187.993Z" fill="#005BBB"/>
<path d="M204.309 171.984L231.216 151.715L224.297 142.529L207.474 155.203L184.233 124.352L174.149 131.948L204.309 171.984Z" fill="#005BBB"/>
<path d="M220.313 101.031L243.03 145.713L254.339 139.963L231.623 95.2812L220.313 101.031Z" fill="#005BBB"/>
<path d="M294.189 116.436L299.963 124.402L312.852 120.831L280.917 77.666L267.215 81.4627L262.048 134.908L274.817 131.37L275.547 121.602L294.189 116.436ZM276.247 110.317L277.727 93.3044L287.842 107.105L276.247 110.317Z" fill="#005BBB"/>
<path d="M331.482 90.557L350.306 120.052L364.211 119.885L363.61 69.7637L351.079 69.9141L351.431 99.2245L351.369 99.2252L332.799 70.1334L318.613 70.3037L319.214 120.425L331.776 120.274L331.419 90.5577L331.482 90.557Z" fill="#005BBB"/>
<path d="M400.698 127.818L405.338 109.039L430.104 83.451L416.573 80.1083L402.373 95.1093L396.914 75.2516L383.08 71.834L393.013 106.026L388.381 124.775L400.698 127.818Z" fill="#005BBB"/>
<path d="M445.901 146.192L463.38 111.748L476.004 118.154L481.208 107.899L444.674 89.3594L439.47 99.6146L452.121 106.035L434.643 140.479L445.901 146.192Z" fill="#005BBB"/>
<path d="M479.371 169.961C488.62 177.607 498.993 176.045 504.169 169.783C508.928 164.027 508.617 156.309 502.522 148.919L497.859 143.28C495.953 140.975 496.565 139.008 497.621 137.731C498.895 136.19 502.013 135.361 505.047 137.87C508.564 140.777 508.619 144.634 506.488 148.143L517.03 152.803C520.533 147.144 521.552 137.769 511.845 129.745C504.306 123.513 493.374 123.152 487.321 130.474C482.244 136.616 483.443 144.337 488.786 150.822L493.253 156.258C495.388 158.875 495.079 160.768 494.004 162.069C492.67 163.683 489.681 164.699 486.188 161.812C482.672 158.905 480.698 154.475 483.875 149.357L473.443 144.221C468.687 152.574 469.688 161.957 479.371 169.961Z" fill="#005BBB"/>
<path d="M542.392 160.814L503.727 192.714L511.802 202.5L550.466 170.601L542.392 160.814Z" fill="#005BBB"/>
<path d="M543.344 236.013L536.844 243.399L543.164 255.186L578.243 214.535L571.524 202.004L518.252 208.725L524.513 220.402L534.203 218.965L543.344 236.013ZM545.365 217.165L562.286 214.864L551.05 227.768L545.365 217.165Z" fill="#005BBB"/>
<path d="M348.289 209.83C236.279 209.83 195.229 297.386 195.229 351.244C195.229 405.103 219.838 432.578 232.142 439.583C286.556 470.217 330.469 467.367 347.971 467.367C361.972 467.367 399.414 462.856 416.385 460.6C489.701 443.787 501.879 382.353 498.803 353.738C495.303 305.768 460.299 209.83 348.289 209.83Z" stroke="#005BBB" stroke-width="16"/>
<path d="M412.249 227.643C377.67 231.277 301.511 263.009 273.509 360.864" stroke="#005BBB" stroke-width="12"/>
<path d="M465.706 268.254C440.169 271.364 383.923 298.514 363.242 382.24" stroke="#005BBB" stroke-width="12"/>
<path d="M421.384 356.978C413.493 320.779 374.143 244.157 279.874 227.256" stroke="#005BBB" stroke-width="12"/>
<path d="M331.808 382.236C330.607 355.198 308.736 294.262 230.863 266.826" stroke="#005BBB" stroke-width="12"/>
<path d="M314.443 554.736L309.326 604.599L321.947 605.894L327.064 556.031L314.443 554.736Z" fill="#005BBB"/>
<path d="M373.053 605.21L369.896 566.714L384.005 565.557L383.065 554.096L342.234 557.444L343.173 568.905L357.313 567.746L360.47 606.242L373.053 605.21Z" fill="#005BBB"/>
<mask id="mask0_69_926" style="mask-type:alpha" maskUnits="userSpaceOnUse" x="88" y="258" width="513" height="332">
<path fill-rule="evenodd" clip-rule="evenodd" d="M100.142 263.838C101.539 259.297 106.699 257.205 110.946 259.334C114.448 261.09 116.11 265.151 114.97 268.899C108.09 291.507 104.459 315.523 104.619 340.398C105.337 452.187 182.372 545.634 286 571.65V588.402C173.626 561.952 89.6486 461.398 88.8745 340.846C88.7024 314.04 92.6566 288.17 100.142 263.838ZM398 589.68C514.535 565.088 601.658 461.293 600.864 337.559C600.701 312.139 596.838 287.608 589.79 264.474C588.348 259.741 582.95 257.589 578.555 259.862C575.008 261.698 573.339 265.837 574.488 269.662C580.93 291.097 584.458 313.801 584.609 337.316C585.346 452.048 505.453 548.494 398 572.897V589.68Z" fill="white"/>
</mask>
<g mask="url(#mask0_69_926)">
<path fill-rule="evenodd" clip-rule="evenodd" d="M100.142 263.838C101.539 259.297 106.699 257.205 110.946 259.334C114.448 261.09 116.11 265.151 114.97 268.899C108.09 291.507 104.459 315.523 104.619 340.398C105.337 452.187 182.372 545.634 286 571.65V588.402C173.626 561.952 89.6486 461.398 88.8745 340.846C88.7024 314.04 92.6566 288.17 100.142 263.838ZM398 589.68C514.535 565.088 601.658 461.293 600.864 337.559C600.701 312.139 596.838 287.608 589.79 264.474C588.348 259.741 582.95 257.589 578.555 259.862C575.008 261.698 573.339 265.837 574.488 269.662C580.93 291.097 584.458 313.801 584.609 337.316C585.346 452.048 505.453 548.494 398 572.897V589.68Z" fill="#FFD101"/>
<path d="M110.946 259.335L96.6065 287.943L110.946 259.335ZM100.142 263.839L69.5568 254.43L100.142 263.839ZM114.97 268.9L145.584 278.216L114.97 268.9ZM104.619 340.399L136.618 340.194L104.619 340.399ZM286 571.651H318V546.691L293.792 540.614L286 571.651ZM286 588.403L278.668 619.552L318 628.81V588.403H286ZM88.8745 340.847L120.874 340.641L88.8745 340.847ZM398 589.681H366V629.139L404.607 620.991L398 589.681ZM600.864 337.56L632.863 337.354L600.864 337.56ZM589.79 264.475L559.179 273.801L589.79 264.475ZM578.555 259.863L593.261 288.284L578.555 259.863ZM574.488 269.663L543.842 278.873L574.488 269.663ZM584.609 337.317L616.609 337.112L584.609 337.317ZM398 572.898L390.913 541.692L366 547.35V572.898H398ZM125.285 230.728C104.062 220.09 77.0047 230.22 69.5568 254.43L130.727 273.249C126.074 288.376 109.335 294.323 96.6065 287.943L125.285 230.728ZM145.584 278.216C151.1 260.09 143.226 239.72 125.285 230.728L96.6065 287.943C85.6703 282.461 81.1209 270.215 84.3558 259.584L145.584 278.216ZM136.618 340.194C136.48 318.581 139.632 297.774 145.584 278.216L84.3558 259.584C76.5477 285.243 72.4392 312.467 72.6198 340.605L136.618 340.194ZM293.792 540.614C203.973 518.065 137.24 437.034 136.618 340.194L72.6198 340.605C73.4336 467.343 160.77 573.205 278.208 602.687L293.792 540.614ZM318 588.403V571.651H254V588.403H318ZM56.8752 341.052C57.7462 476.715 152.248 589.796 278.668 619.552L293.332 557.255C195.003 534.11 121.551 446.082 120.874 340.641L56.8752 341.052ZM69.5568 254.43C61.1243 281.839 56.6819 310.95 56.8752 341.052L120.874 340.641C120.723 317.131 124.189 294.502 130.727 273.249L69.5568 254.43ZM404.607 620.991C535.722 593.322 633.757 476.593 632.863 337.354L568.865 337.765C569.56 445.995 493.348 536.855 391.393 558.371L404.607 620.991ZM632.863 337.354C632.68 308.81 628.34 281.209 620.401 255.149L559.179 273.801C565.336 294.01 568.721 315.469 568.865 337.765L632.863 337.354ZM620.401 255.149C612.89 230.497 585.25 220.37 563.85 231.443L593.261 288.284C580.649 294.81 563.806 288.987 559.179 273.801L620.401 255.149ZM563.85 231.442C546.127 240.612 538.426 260.85 543.842 278.873L605.134 260.452C608.252 270.826 603.889 282.785 593.261 288.284L563.85 231.442ZM543.842 278.873C549.415 297.417 552.479 317.09 552.61 337.523L616.609 337.112C616.438 310.514 612.445 284.779 605.134 260.452L543.842 278.873ZM552.61 337.523C553.248 436.918 484.032 520.545 390.913 541.692L405.087 604.103C526.874 576.444 617.444 467.181 616.609 337.112L552.61 337.523ZM366 572.898V589.681H430V572.898H366Z" fill="#005BBB"/>
</g>
</g>
<defs>
<clipPath id="clip0_69_926">
<rect width="684" height="684" fill="white"/>
</clipPath>
</defs>
</svg>
